<?xml version="1.0" standalone="no"?><!DOCTYPE svg PUBLIC "-//W3C//DTD SVG 1.1//EN" "http://www.w3.org/Graphics/SVG/1.1/DTD/svg11.dtd"><svg t="1617270487627" class="icon" viewBox="0 0 1024 1024" version="1.1" xmlns="http://www.w3.org/2000/svg" p-id="7588" xmlns:xlink="http://www.w3.org/1999/xlink" width="200" height="200"><defs><style type="text/css"></style></defs><path d="M971.340829 41.145783c-17.49973-9.000156-34.999461-9.000156-43.999617 0L50.852947 476.641875c-17.49973 0-26.499887 17.49973-26.499887 34.999461s8.499574 34.999461 17.499731 34.99946l210.497346 130.497105c17.49973 8.499574 34.999461 8.499574 52.499191-9.000156l464.994311-417.996362 17.49973 8.499575-420.994693 443.995665c-8.499574 8.499574-8.499574 17.49973-8.499574 25.999305v191.49587c0 17.49973 9.000156 34.999461 26.499886 43.499035 17.49973 9.000156 34.999461 0 43.999617-8.499574l104.998383-104.497801 210.497346 139.497261c9.000156 8.499574 17.49973 8.499574 26.499887 8.499575h17.49973c17.49973-8.499574 26.499887-17.49973 26.499887-34.999461l175.497886-870.987023c-1.001164-25.498722-1.001164-42.998453-18.500895-51.498027z" p-id="7589"></path></svg>