<?xml version="1.0" standalone="no"?><!DOCTYPE svg PUBLIC "-//W3C//DTD SVG 1.1//EN" "http://www.w3.org/Graphics/SVG/1.1/DTD/svg11.dtd"><svg t="1618229239183" class="icon" viewBox="0 0 1024 1024" version="1.1" xmlns="http://www.w3.org/2000/svg" p-id="2358" xmlns:xlink="http://www.w3.org/1999/xlink" width="200" height="200"><defs><style type="text/css"></style></defs><path d="M512 28.444444a483.555556 483.555556 0 1 1 0 967.111112 483.555556 483.555556 0 0 1 0-967.111112z m0 56.888889a426.666667 426.666667 0 1 0 0 853.333334 426.666667 426.666667 0 0 0 0-853.333334z m0 317.895111a108.771556 108.771556 0 1 1 0 217.543112 108.771556 108.771556 0 0 1 0-217.543112z m0 56.888889a51.882667 51.882667 0 1 0 0 103.765334 51.882667 51.882667 0 0 0 0-103.765334z m0 291.157334a28.444444 28.444444 0 0 1 0 56.888889A296.163556 296.163556 0 0 1 215.836444 512a28.444444 28.444444 0 1 1 56.888889 0A239.274667 239.274667 0 0 0 512 751.274667z m0-478.549334a28.444444 28.444444 0 0 1 0-56.888889A296.163556 296.163556 0 0 1 808.163556 512a28.444444 28.444444 0 1 1-56.888889 0A239.274667 239.274667 0 0 0 512 272.725333z" p-id="2359"></path></svg>