<?xml version="1.0" standalone="no"?><!DOCTYPE svg PUBLIC "-//W3C//DTD SVG 1.1//EN" "http://www.w3.org/Graphics/SVG/1.1/DTD/svg11.dtd"><svg t="1618230460603" class="icon" viewBox="0 0 1027 1024" version="1.1" xmlns="http://www.w3.org/2000/svg" p-id="9822" xmlns:xlink="http://www.w3.org/1999/xlink" width="240.703125" height="240"><defs><style type="text/css"></style></defs><path d="M98.137 417.849h46.428V371.42H98.137v46.428z m0-185.711h46.428v-46.427H98.137v46.427z m789.271 92.856h46.427v-46.428h-46.427v46.428z m-789.27-185.71h46.427V92.855H98.137v46.427z m46.427 742.842H98.137v46.427h46.428v-46.427z m0-185.71H98.137v46.427h46.428v-46.428z m0-92.857H98.137v46.428h46.428v-46.428z m0 185.712H98.137v46.427h46.428v-46.427zM98.137 324.994h46.428v-46.428H98.137v46.428z m835.698 557.132h-46.427v46.427h46.427v-46.427z m0-92.855h-46.427v46.427h46.427v-46.427z m-46.427-557.133h46.427v-46.427h-46.427v46.427z m0 185.71h46.427v-46.427h-46.427v46.428zM933.835 0H98.137C46.858 0 5.282 41.576 5.282 92.856v835.698c0 51.28 41.576 92.856 92.856 92.856h835.698c51.28 0 92.856-41.576 92.856-92.856V92.856c0-51.28-41.578-92.856-92.857-92.856zM190.993 974.982H98.138c-25.64 0-46.427-20.789-46.427-46.428V533.918h139.283v441.064z m0-487.491H51.71V92.856c0-25.64 20.787-46.428 46.427-46.428h92.855v441.063z m603.56 487.49H237.42V533.919h557.132v441.064z m0-487.49H237.42V46.427h557.132v441.064z m185.71 441.062c0 25.64-20.789 46.428-46.428 46.428H840.98V533.918h139.283v394.635z m0-441.062H840.98V46.427h92.855c25.64 0 46.428 20.789 46.428 46.428V487.49z m-92.855-348.208h46.427V92.856h-46.427v46.427z m46.427 464.276h-46.427v46.428h46.427v-46.428z m0 92.856h-46.427v46.428h46.427v-46.428z"  p-id="9823"></path></svg>