<?xml version="1.0" standalone="no"?><!DOCTYPE svg PUBLIC "-//W3C//DTD SVG 1.1//EN" "http://www.w3.org/Graphics/SVG/1.1/DTD/svg11.dtd"><svg t="1618230437956" class="icon" viewBox="0 0 1075 1024" version="1.1" xmlns="http://www.w3.org/2000/svg" p-id="8383" xmlns:xlink="http://www.w3.org/1999/xlink" width="251.953125" height="240"><defs><style type="text/css"></style></defs><path d="M739.90152406 36.50175875c5.62719844-5.62719844 14.630715-5.62719844 20.25791344 0s5.62719844 14.630715 0 20.25791344L571.08558031 245.83352844h326.37749157c39.39038719 0 75.40445531 15.75615469 101.28956624 41.64126656s41.64126656 61.89917906 41.64126563 101.28956625v461.43024562c0 39.39038719-15.75615469 74.27901562-41.64126563 100.16412657s-61.89917906 41.64126656-101.28956625 41.64126656H174.93083281c-39.39038719 0-75.40445531-15.75615469-101.28956625-41.64126656S32 889.58499406 32 850.19460687V388.76436125c0-39.39038719 15.75615469-75.40445531 41.64126656-101.28956625s61.89917906-41.64126656 101.28956625-41.64126656h326.37749063L312.23446625 56.75967219c-5.62719844-5.62719844-5.62719844-14.630715 0-20.25791344s14.630715-5.62719844 20.25791344 0l203.70457218 203.70457219L739.90152406 36.50175875z m157.56154781 238.59320063H174.93083281c-31.51230937 0-59.64829969 12.37983563-79.90621406 33.76318875-21.38335312 20.25791344-33.76318875 48.39390375-33.76318875 79.90621312v461.43024562c0 30.38686969 12.37983563 58.52286094 33.76318875 79.90621407 20.25791344 20.25791344 48.39390375 32.63774906 79.90621406 32.63774906h722.53223906c31.51230937 0 59.64829969-12.37983563 79.90621313-32.63774906 21.38335312-21.38335312 33.76318875-49.51934344 33.76318875-79.90621407V388.76436125c0-31.51230937-12.37983563-59.64829969-33.76318875-79.90621312-20.25791344-21.38335312-48.39390375-33.76318875-79.90621313-33.76318875zM454.03985937 449.53810063l135.05275501 77.65533468 136.17819468 78.78077344c7.87807781 4.50175875 10.12895625 13.50527531 5.62719844 20.25791344-1.12543969 2.25087938-3.37631906 4.50175875-5.62719844 5.6271975l-136.17819468 78.78077437-136.17819469 78.78077344c-7.87807781 4.50175875-16.88159438 2.25087938-20.25791344-5.62719844-1.12543969-2.25087938-2.25087938-4.50175875-2.25087937-6.75263718V460.7924975c0-7.87807781 6.75263812-14.630715 14.630715-14.63071594 3.37631906 0 5.62719844 1.12543969 9.0035175 3.37631907z m120.42204 103.54044562l-114.79484156-66.40093781v264.47831156l114.79484156-65.27549813 114.79484157-66.40093781-114.79484157-66.40093781z"  p-id="8384"></path></svg>