<?xml version="1.0" standalone="no"?><!DOCTYPE svg PUBLIC "-//W3C//DTD SVG 1.1//EN" "http://www.w3.org/Graphics/SVG/1.1/DTD/svg11.dtd"><svg t="1617347855266" class="icon" viewBox="0 0 1034 1024" version="1.1" xmlns="http://www.w3.org/2000/svg" p-id="17219" xmlns:xlink="http://www.w3.org/1999/xlink" width="201.953125" height="200"><defs><style type="text/css"></style></defs><path d="M998.956522 416.973913c-52.313043-147.33913-129.252174-261.843478-309.147826-234.017391-58.713043 9.043478-108.93913 30.191304-172.521739 31.165217-0.695652 0-1.252174-0.13913-1.808696-0.13913v0.13913C452.173913 213.147826 402.086957 192 343.513043 182.956522c-179.478261-27.826087-256.13913 86.678261-308.313043 234.017391-29.495652 83.33913-69.008696 351.165217 17.530435 433.252174 90.434783 85.843478 140.66087-106.713043 462.747826-106.713044 322.086957 0 375.373913 192.556522 466.086956 106.713044 86.53913-82.086957 46.886957-349.913043 17.391305-433.252174z m-77.078261 404.869565c-66.226087 0-116.869565-117.147826-406.4-117.147826s-355.2 117.147826-403.478261 117.147826c-107.408696 0-54.956522-314.852174-28.521739-389.704348 46.886957-132.452174 111.721739-231.234783 273.113043-206.191304 52.730435 8.208696 101.982609 31.304348 158.886957 32.278261v-0.13913c0.556522 0 1.113043 0.13913 1.669565 0.13913 57.182609-0.973913 106.573913-24.069565 159.443478-32.278261 161.947826-25.043478 226.782609 73.73913 273.947826 206.191304 26.434783 74.991304 78.886957 389.704348-28.660869 389.704348z m0 0" p-id="17220" ></path><path d="M680.904348 436.730435c0 24.069565 19.478261 43.547826 43.547826 43.547826s43.547826-19.478261 43.547826-43.547826-19.478261-43.547826-43.547826-43.547826c-24.069565-0.13913-43.547826 19.478261-43.547826 43.547826z m0 0M789.982609 545.669565c0 15.582609 8.347826 29.913043 21.843478 37.704348 13.495652 7.791304 30.052174 7.791304 43.547826 0s21.843478-22.121739 21.843478-37.704348c0-15.582609-8.347826-29.913043-21.843478-37.704348-13.495652-7.791304-30.052174-7.791304-43.547826 0-13.634783 7.791304-21.843478 22.121739-21.843478 37.704348z m0 0M396.93913 486.678261c0 11.686957-7.930435 21.147826-17.808695 21.147826H186.852174c-9.73913 0-17.808696-9.46087-17.808696-21.147826 0-11.686957 7.930435-21.147826 17.808696-21.147826h192.278261c9.878261 0 17.808696 9.46087 17.808695 21.147826z m0 0" p-id="17221" ></path><path d="M282.991304 600.626087c-11.686957 0-21.147826-7.930435-21.147826-17.808696V390.53913c0-9.73913 9.46087-17.808696 21.147826-17.808695 11.686957 0 21.147826 7.930435 21.147826 17.808695v192.278261c0 9.878261-9.46087 17.808696-21.147826 17.808696z m0 0" p-id="17222" ></path></svg>