<?xml version="1.0" standalone="no"?><!DOCTYPE svg PUBLIC "-//W3C//DTD SVG 1.1//EN" "http://www.w3.org/Graphics/SVG/1.1/DTD/svg11.dtd"><svg t="1618230600659" class="icon" viewBox="0 0 1024 1024" version="1.1" xmlns="http://www.w3.org/2000/svg" p-id="14030" xmlns:xlink="http://www.w3.org/1999/xlink" width="240" height="240"><defs><style type="text/css"></style></defs><path d="M704 256V128H160a32 32 0 0 1 0-64H704a64 64 0 0 1 64 64v128h64a64 64 0 0 1 64 64v128l35.392-17.664A64 64 0 0 1 1024 487.552v304.896a64 64 0 0 1-92.608 57.216L896 832v128a64 64 0 0 1-64 64H64a64 64 0 0 1-64-64V320a64 64 0 0 1 64-64h640zM64 320v640h768v-231.552l128 64V487.552l-128 64V320H64z m160 128h128a32 32 0 0 1 0 64h-128a32 32 0 0 1 0-64z" p-id="14031"></path></svg>