<?xml version="1.0" standalone="no"?><!DOCTYPE svg PUBLIC "-//W3C//DTD SVG 1.1//EN" "http://www.w3.org/Graphics/SVG/1.1/DTD/svg11.dtd"><svg t="1617347803391" class="icon" viewBox="0 0 1024 1024" version="1.1" xmlns="http://www.w3.org/2000/svg" p-id="14070" xmlns:xlink="http://www.w3.org/1999/xlink" width="200" height="200"><defs><style type="text/css"></style></defs><path d="M1017.344 477.696c0-2.56-0.512-5.12-0.512-7.68 0-2.048-0.512-3.584-0.512-5.632l-0.512-3.072c-0.512-5.632-1.024-11.776-2.048-17.408l-1.536-10.752-1.536-9.216c-0.512-4.608-1.536-8.704-2.56-13.312-1.024-4.096-1.536-7.68-2.56-11.776l-1.536-6.656c-1.024-4.608-2.048-9.728-3.584-14.336-1.024-4.096-2.56-8.192-3.584-12.8l-1.024-3.584c-1.536-5.632-3.584-10.752-5.12-16.384-1.536-5.12-3.584-10.24-5.632-15.36-1.536-4.096-4.096-10.24-6.656-16.384-2.048-4.608-4.096-9.728-6.144-14.336-2.56-5.632-5.12-11.264-8.192-16.896-2.048-4.608-4.608-8.704-7.168-13.312-0.512-1.024-1.536-2.56-2.048-4.096v-0.512c-0.512-1.536-1.536-2.56-2.048-4.096l-1.536-2.56-2.048-3.584c-1.024-2.048-2.048-3.584-3.072-5.12l-3.072-5.12 2.56-5.12c44.032-87.552 50.176-147.968 17.92-179.712-27.648-27.648-77.312-27.136-146.944 2.56-11.776 5.12-25.6 11.264-35.328 14.848l-5.12 2.048-4.608-2.56c-19.968-11.776-40.96-22.528-62.464-31.744l-1.024-0.512c-7.68-3.072-16.384-6.656-27.136-10.24-1.024-0.512-2.56-1.024-4.096-1.536l-2.048-0.512c-8.192-3.072-16.896-5.632-25.088-7.68l-6.144-1.536c-20.48-5.632-41.472-9.728-61.952-12.8-1.024 0-2.56-0.512-3.584-0.512l-2.56-0.512c-8.192-1.024-16.896-2.048-25.6-2.56h-2.56c-1.536 0-3.584-0.512-5.12-0.512-11.776-0.512-22.016-1.024-31.232-1.024-279.552 0-506.88 227.328-506.88 506.88 0 10.752 0.512 22.016 1.024 33.28 0 3.584 0.512 6.656 1.024 10.24l1.024 9.728c0.512 4.096 1.024 8.704 1.536 12.8 0.512 5.12 1.536 10.24 2.56 14.848l1.536 8.192 1.536 9.216c1.024 6.144 2.56 12.288 4.096 17.92l1.024 5.12c0.512 3.072 1.536 6.144 2.048 9.216 1.536 6.144 3.584 11.776 5.12 17.92l1.024 2.56c1.024 4.096 2.56 7.68 3.584 11.264l6.144 16.896c2.048 5.12 3.584 9.728 5.632 14.336 2.048 5.12 4.096 10.24 6.656 14.848 2.56 5.12 5.12 10.752 7.68 15.872 2.048 4.608 4.608 8.704 6.656 13.312 0.512 1.024 1.536 2.56 2.048 3.584 0.512 1.536 1.536 2.56 2.048 3.584 1.024 2.048 2.56 4.096 3.584 6.656 1.024 1.536 2.048 3.072 2.56 4.608l1.536 3.072c0.512 1.024 1.024 1.536 1.536 2.56l3.072 5.12-2.56 5.12c-44.032 87.552-49.664 147.968-17.92 179.712 13.824 13.824 31.744 19.968 55.296 19.968 32.256 0 74.24-12.8 124.416-37.888l5.12-2.56 5.12 3.072 3.072 1.536 0.512 0.512 3.072 1.536c4.608 2.56 9.728 5.632 14.848 8.192 5.12 3.072 10.24 5.632 16.384 8.704 5.12 2.56 10.24 5.12 15.872 7.68s10.752 4.608 16.384 7.168l2.048 1.024c4.608 2.048 9.728 4.096 14.848 5.632l13.824 4.608 4.608 1.536c5.12 1.536 10.24 3.584 15.872 5.12l12.288 3.072 7.68 2.048c5.12 1.024 9.728 2.56 14.848 3.584 4.608 1.024 9.216 1.536 13.312 2.56l8.704 1.536c4.096 1.024 8.192 1.536 12.8 2.048 5.632 1.024 11.264 1.536 16.896 2.048l4.608 0.512c1.536 0 3.584 0.512 5.632 0.512 3.072 0.512 6.144 0.512 8.704 1.024 12.288 1.024 24.576 1.536 35.84 1.536 279.552 0 506.88-227.328 506.88-506.88-0.512-11.776-1.024-23.04-2.048-34.304z m-748.544 398.848c-88.064 52.736-133.632 60.928-152.576 60.928-13.824 0-20.48-3.584-23.552-6.656-12.288-12.8-10.752-57.344 34.816-142.848 4.096-8.192 3.584-17.92-2.048-25.088l-0.512-0.512c-6.144-9.216-11.776-18.944-16.896-28.16-0.512-0.512-1.024-1.536-1.536-2.56l-0.512-1.024c-4.608-8.192-8.192-15.872-12.288-24.064-1.024-2.56-2.56-5.632-3.584-8.192l-1.536-3.584c-2.56-5.12-4.608-10.752-7.168-16.384l-4.608-12.288-1.024-2.56-4.608-13.824-4.608-15.36c-1.536-4.608-2.56-9.216-3.584-14.336-1.024-5.12-2.56-10.752-3.584-15.872-1.024-4.096-1.536-8.704-2.56-12.8l-0.512-2.56v-1.024c-0.512-4.608-1.536-8.704-2.048-13.312-1.024-6.144-1.536-12.288-2.048-18.432l-0.512-3.584c-0.512-3.072-0.512-5.632-1.024-8.704-0.512-11.264-1.024-21.504-1.024-31.232 0-253.952 206.848-460.8 460.8-460.8 12.288 0 25.088 0.512 40.96 2.048 4.096 0.512 8.192 1.024 12.8 1.536 9.728 1.024 19.968 2.56 29.696 4.608 1.536 0.512 3.072 0.512 4.608 1.024 2.56 0.512 4.608 1.024 7.168 1.024 13.312 2.56 26.112 6.144 37.888 9.728 2.048 0.512 4.096 1.536 6.144 2.048 1.536 0.512 3.072 1.024 4.096 1.536 9.728 3.072 19.456 6.656 29.184 10.752 27.136 11.264 52.736 24.064 76.288 38.912 12.288 7.68 19.968 5.12 74.24-18.944 56.32-23.552 86.528-22.016 96.256-12.288 7.68 7.68 8.704 26.624 3.072 51.2-7.68 32.768-27.136 74.752-56.832 124.928-60.928 101.376-157.696 220.16-272.384 335.36-114.176 114.176-233.472 210.944-334.848 271.36z m243.2 95.744c-10.24 0-20.992-0.512-32.768-1.024-3.072 0-5.632-0.512-8.704-1.024l-7.168-0.512c-5.632-0.512-11.264-1.024-16.896-2.048-3.584-0.512-7.68-1.024-11.264-2.048l-8.192-1.536c-4.096-0.512-8.192-1.536-12.288-2.048-4.096-1.024-7.68-2.048-11.264-2.56l-8.192-2.048c-4.096-1.024-7.68-2.048-11.776-3.072-4.096-1.024-8.192-2.56-12.288-4.096l-6.144-2.048c-4.096-1.536-8.192-2.56-12.8-4.096-4.096-1.536-7.68-3.072-11.776-4.608l-3.072-1.024c-5.12-2.048-10.24-4.096-15.36-6.656-4.096-1.536-7.68-3.584-11.264-5.632l-19.456-9.216 16.384-10.24c100.864-62.976 217.6-158.72 328.704-269.824C747.52 525.824 843.264 409.088 906.24 308.224l10.24-16.384 8.192 17.408c1.536 3.072 3.072 6.656 4.608 9.728 2.048 4.096 4.096 8.704 5.632 12.8 2.048 5.12 4.096 10.752 6.144 14.848 2.048 5.12 3.584 9.216 5.12 13.824 1.536 4.608 3.072 9.728 4.608 14.336l0.512 1.536c1.536 4.096 2.56 8.704 4.096 13.312 1.024 4.096 2.048 7.68 3.072 11.776l1.536 6.144c1.024 4.096 2.048 7.68 2.56 11.776 1.024 4.096 1.536 8.704 2.048 12.8l1.024 6.656 1.536 10.752c0.512 5.12 1.024 10.24 1.536 15.872l0.512 6.656c0.512 2.56 0.512 5.12 0.512 8.192 0.512 10.752 1.024 20.992 1.024 30.72 1.536 254.464-204.8 461.312-458.752 461.312z" p-id="14071" ></path><path d="M288.256 453.12c-38.4 0-69.632 31.232-69.632 69.632s31.232 69.632 69.632 69.632 69.632-31.232 69.632-69.632-31.232-69.632-69.632-69.632z m0 110.08c-22.528 0-40.448-17.92-40.448-40.448s17.92-40.448 40.448-40.448 40.448 17.92 40.448 40.448c0 22.016-17.92 40.448-40.448 40.448zM442.368 178.176c-50.688 0-91.648 40.96-91.648 91.648 0 24.576 9.728 47.104 26.624 64.512 17.408 17.408 40.448 26.624 64.512 26.624 50.688 0 91.648-40.96 91.648-91.648 0-50.176-40.96-91.136-91.136-91.136z m0 154.112c-34.304 0-62.464-28.16-62.464-62.464 0-34.304 28.16-62.464 62.464-62.464s62.464 28.16 62.464 62.464c0 34.304-28.16 62.464-62.464 62.464z" p-id="14072" ></path></svg>