<?xml version="1.0" standalone="no"?><!DOCTYPE svg PUBLIC "-//W3C//DTD SVG 1.1//EN" "http://www.w3.org/Graphics/SVG/1.1/DTD/svg11.dtd"><svg t="1617347737666" class="icon" viewBox="0 0 1024 1024" version="1.1" xmlns="http://www.w3.org/2000/svg" p-id="11152" xmlns:xlink="http://www.w3.org/1999/xlink" width="200" height="200"><defs><style type="text/css"></style></defs><path d="M1003.0955 31.181232l-2.701458-21.881299-21.728674-3.744393c-1.31766-0.22385-32.738004-5.55554-79.258021-5.55554-54.146166 0-134.686235 7.381949-210.891762 42.556862-58.384046 26.943352-109.899979 90.094377-153.113127 187.692803a846.334642 846.334642 0 0 0-18.472679 45.324456c-8.887847-29.375173-20.243126-56.598337-33.94374-81.28793-25.707092-46.326692-59.676269-83.780801-100.97652-111.304126C281.068612 15.679647 183.414223 1.556772 119.271137 1.556772 72.272896 1.556772 42.109162 9.203271 40.842377 9.528871L20.624688 14.748636l-1.933246 20.787488c-0.218762 2.340246-5.184153 58.053359 7.132662 128.688083 7.290375 41.82935 19.169666 80.412882 35.307187 114.682221 20.573813 43.681197 48.122577 80.417969 81.893342 109.182643C191.528771 429.404585 242.907342 459.802343 295.73076 478.437822c41.712338 14.713024 84.477787 22.176373 127.110961 22.176373 26.694065 0 49.496199-2.976182 66.676657-6.155864v77.772474H201.988653v352.802234c0 54.58369 44.408708 98.997486 98.997486 98.997486h451.341845c54.58369 0 98.987311-44.408708 98.987311-98.997486v-352.802234H542.524946l-0.157713-159.253729c39.768917 6.420414 83.9029 4.553304 118.665726 4.553305 114.025934 0 202.090402-34.218464 261.746321-101.704031 100.182871-113.318773 81.176005-277.70578 80.31622-284.645118z m-207.040531 892.320472c-4.125955 23.366846-21.886386 41.127277-45.996006 46.55563H298.717118c-19.561403-5.428353-43.63541-21.25045-43.63541-43.085961v-301.164201h540.973261v297.694532zM422.846809 441.217739c-83.506076 0-164.692256-33.089041-241.299695-98.346288-27.095977-23.081946-49.404624-52.859031-66.305269-88.491817-13.873588-29.247985-24.180844-62.504914-30.641958-98.844861-6.715488-37.81532-7.829649-71.240136-7.631237-92.073411a346.315683 346.315683 0 0 1 42.2974-2.513221c55.947138 0 141.223661 12.398215 229.796878 71.448723 33.114478 22.074623 60.556405 52.340107 81.567742 89.951927 17.246594 30.870895 30.280746 66.788581 38.746331 106.750822 9.330458 44.062759 10.439531 88.720754 10.403919 111.858664-14.723199 2.81847-33.694452 0.259462-56.934111 0.259462z m455.177814-164.437882c-47.898727 53.983366-120.904222 81.354068-216.991664 81.354067-32.620992 0-68.213078-3.184769-106.14541-9.483083 7.173362-23.626308 18.905116-58.506146 35.205437-95.181868 36.584147-82.346128 79.222409-136.624569 123.315693-156.974532 66.422282-30.65722 137.809954-37.092896 186.003756-37.092897 18.447242 0 34.233726 0.941186 46.041792 1.979034 0.951361 44.596946-4.736454 144.723855-67.429604 215.399279z"  p-id="11153"></path></svg>