<?xml version="1.0" standalone="no"?><!DOCTYPE svg PUBLIC "-//W3C//DTD SVG 1.1//EN" "http://www.w3.org/Graphics/SVG/1.1/DTD/svg11.dtd"><svg t="1617347882474" class="icon" viewBox="0 0 1024 1024" version="1.1" xmlns="http://www.w3.org/2000/svg" p-id="18666" xmlns:xlink="http://www.w3.org/1999/xlink" width="200" height="200"><defs><style type="text/css"></style></defs><path d="M177.824 544c3.84 4.64 7.968 9.152 12.288 13.504L512 882.56l321.888-325.024c82.816-83.616 82.816-219.296 0-302.912a210.048 210.048 0 0 0-299.136 0 32 32 0 0 1-45.504 0 210.048 210.048 0 0 0-299.136 0A214.816 214.816 0 0 0 128.224 416H64.16A278.592 278.592 0 0 1 144.64 209.536 274.016 274.016 0 0 1 512 188.96a274.016 274.016 0 0 1 367.36 20.576c107.52 108.576 107.52 284.48 0 393.024L534.72 950.528a32 32 0 0 1-45.44 0L144.64 602.56A278.144 278.144 0 0 1 100.256 544H32a32 32 0 0 1 0-64h258.752l150.624-150.624c20.16-20.16 54.624-5.888 54.624 22.624v194.752l57.376-57.376A32 32 0 0 1 576 480h144a32 32 0 0 1 0 64h-130.752l-102.624 102.624c-20.16 20.16-54.624 5.888-54.624-22.624v-194.752l-105.376 105.376A32 32 0 0 1 304 544H177.824z" p-id="18667"></path></svg>