<?xml version="1.0" standalone="no"?><!DOCTYPE svg PUBLIC "-//W3C//DTD SVG 1.1//EN" "http://www.w3.org/Graphics/SVG/1.1/DTD/svg11.dtd"><svg t="1618231218424" class="icon" viewBox="0 0 1117 1024" version="1.1" xmlns="http://www.w3.org/2000/svg" p-id="16605" xmlns:xlink="http://www.w3.org/1999/xlink" width="261.796875" height="240"><defs><style type="text/css"></style></defs><path d="M1019.499985 0H104.012955A111.709091 111.709091 0 0 0 0.06144 107.52v669.292606A88.808727 88.808727 0 0 0 93.152349 868.848485h310.30303l158.254546 155.151515 152.048485-155.151515h310.30303a88.808727 88.808727 0 0 0 93.090909-92.035879v-105.906424l-3.258182 3.444363L1117.152349 103.299879A102.4 102.4 0 0 0 1019.499985 0zM334.568107 516.840727a65.163636 65.163636 0 0 1-56.475152-33.078303 67.087515 67.087515 0 0 1 0-66.218666 65.163636 65.163636 0 0 1 56.475152-33.109334 66.218667 66.218667 0 0 1 0 132.437334z m227.203878 0a65.163636 65.163636 0 0 1-56.475151-33.109333 67.087515 67.087515 0 0 1 0-66.218667 65.163636 65.163636 0 0 1 56.475151-33.109333 66.218667 66.218667 0 0 1 0 132.437333z m227.203879 0A65.163636 65.163636 0 0 1 732.376592 483.762424a67.118545 67.118545 0 0 1 0-66.218666 65.163636 65.163636 0 0 1 56.475151-33.109334 66.218667 66.218667 0 0 1 0 132.437334z m0 0" fill="#FCAE07" p-id="16606"></path></svg>