<?xml version="1.0" standalone="no"?><!DOCTYPE svg PUBLIC "-//W3C//DTD SVG 1.1//EN" "http://www.w3.org/Graphics/SVG/1.1/DTD/svg11.dtd"><svg t="1618230581568" class="icon" viewBox="0 0 1024 1024" version="1.1" xmlns="http://www.w3.org/2000/svg" p-id="13719" xmlns:xlink="http://www.w3.org/1999/xlink" width="240" height="240"><defs><style type="text/css"></style></defs><path d="M873.14432 150.85056C777.088 54.78912 648.832 1.88416 512 1.88416S246.912 54.78912 150.85568 150.85056C54.78912 246.912 1.88928 375.168 1.88928 512c0 136.832 52.89984 265.08288 148.9664 361.15456C246.92224 969.216 375.17312 1022.12096 512 1022.12096s265.088-52.90496 361.14432-148.9664c96.07168-96.07168 148.9664-224.32256 148.9664-361.15456 0-136.832-52.89472-265.088-148.9664-361.14944zM512 950.95808c-242.03776 0-438.95808-196.9152-438.95808-438.9632 0-242.04288 196.92032-438.9632 438.95808-438.9632 144.4864 0 280.7552 73.0112 365.23008 195.48672-7.28576 5.49888-18.56 15.75424-35.76832 31.40096-17.1264 15.57504-40.576 36.90496-72.19712 64.56832-12.87168 10.27584-28.21632 16.16896-42.10688 16.17408-6.64064 0-12.61568-1.30048-17.75616-3.8656-14.8224-7.40864-26.96192-25.94304-27.72992-41.95328 41.47712-37.31456 74.98752-66.64704 75.32032-66.93888l0.17408-0.16896c6.86592-6.86592 10.6496-16.09728 10.6496-25.98912 0-9.89696-3.78368-19.12832-10.6496-25.99424s-16.09728-10.64448-25.98912-10.64448-19.12832 3.77856-25.92256 10.57792c-0.79872 0.768-81.75616 77.36832-165.83168 148.82304l-0.21504 0.2048c-12.17536 12.17536-26.09152 18.87744-39.18848 18.88256-7.3728 0-14.24896-2.23744-19.88096-6.4512l-0.54784-0.34304c-15.6416-7.81824-27.1104-27.02336-27.7504-46.13632 54.10816-45.8752 92.15488-83.82464 92.53376-84.20352 6.86592-6.86592 10.64448-16.09728 10.64448-25.98912 0-9.89696-3.77856-19.1232-10.64448-25.99424-6.86592-6.86592-16.09728-10.6496-25.98912-10.6496-9.90208 0-19.1232 3.78368-25.92256 10.57792-0.81408 0.76288-81.7664 77.3632-165.80608 148.80256-16.384 13.64992-31.24224 20.28544-45.40928 20.28544-6.26176 0-12.42112-1.24416-18.85184-3.7888-15.56992-7.89504-27.63776-32.09728-27.63776-47.73888 0-19.39968 11.59168-31.35488 11.6992-31.46752 13.99808-14.0032 14.08512-37.61152 0.25088-51.73248-4.78208-6.93248-12.95872-10.89536-22.51776-10.89536-9.41056 0-18.688 3.88096-25.46176 10.6496-9.23648 9.23648-31.15008 35.41504-35.0976 78.85824l-0.02048 0.3328c0 48.64512 26.86976 92.30336 70.1184 113.92512 16.7168 8.35584 34.3808 13.15328 48.45056 13.15328 29.39392 0 60.45184-12.3904 87.45984-34.8928l0.24064-0.22016c4.07552-4.0704 8.11008-7.09632 12.37504-10.30144 3.1232-2.34496 6.3232-4.74112 9.54368-7.58784 14.33088 27.01312 32.26624 45.6448 54.72256 56.87808 16.72192 8.35584 34.3808 13.15328 48.45568 13.15328 29.3888 0 60.46208-12.3904 87.45472-34.8928l0.25088-0.22016c9.9072-9.91232 19.65568-17.09056 32-26.17856 2.16064-1.59232 4.38784-3.2256 6.69696-4.9408 14.37184 27.264 32.37376 46.04416 54.96832 57.33888 16.72192 8.36096 34.37568 13.15328 48.44544 13.15328 29.39904 0 60.46208-12.39552 87.45984-34.8928 47.4368-39.5264 80.57344-68.39296 98.64192-85.9136 26.58816 59.2128 40.06912 120.08448 40.06912 180.99712 0.00512 239.68256-196.9152 434.688-438.9632 434.688z" p-id="13720"></path><path d="M413.51168 563.072c0-27.83744-22.64064-50.46784-50.46784-50.46784s-50.46784 22.63552-50.46784 50.46784c0 27.8272 22.64576 50.46272 50.46784 50.46272 27.8272 0 50.46784-22.64064 50.46784-50.46272zM660.96128 512.59904c-27.83232 0-50.46784 22.63552-50.46784 50.46784 0 27.8272 22.64064 50.46272 50.46784 50.46272s50.46784-22.64064 50.46784-50.46272c0-27.83232-22.64576-50.46784-50.46784-50.46784zM642.26304 722.21184c-8.16128-8.1664-19.42528-13.03552-30.12608-13.03552-8.50432 0-16.02048 2.9952-21.74464 8.66816-24.69376 20.75648-51.31776 31.2832-79.13984 31.2832-42.02496 0-75.20256-24.59648-81.79712-31.17056-5.73952-5.74464-12.73856-8.78592-20.22912-8.78592-9.3184 0-19.08736 4.6336-27.48928 13.03552-6.76864 6.7584-9.7792 16.1536-8.49408 26.4448 1.16736 9.2928 5.8112 18.60608 12.7488 25.53856l0.24576 0.22528c13.40928 11.18208 62.44864 47.66208 130.01728 47.66208 30.97088 0 77.2096-8.27904 121.59488-47.73888l0.1536-0.14336c15.48288-15.488 17.2032-34.78016 4.59776-51.58912l-0.33792-0.39424z" p-id="13721"></path></svg>