<?xml version="1.0" standalone="no"?><!DOCTYPE svg PUBLIC "-//W3C//DTD SVG 1.1//EN" "http://www.w3.org/Graphics/SVG/1.1/DTD/svg11.dtd"><svg t="1618127540562" class="icon" viewBox="0 0 1024 1024" version="1.1" xmlns="http://www.w3.org/2000/svg" p-id="8053" xmlns:xlink="http://www.w3.org/1999/xlink" width="200" height="200"><defs><style type="text/css"></style></defs><path d="M510.75122 382.676293a123.854049 123.854049 0 0 0-88.313757 36.614244 124.378537 124.378537 0 0 0-36.614243 88.313756c0 33.39239 13.062244 64.661854 36.614243 88.313756a124.278634 124.278634 0 0 0 88.313757 36.639219 124.328585 124.328585 0 0 0 88.338731-36.639219 124.328585 124.328585 0 0 0 36.614244-88.313756 124.378537 124.378537 0 0 0-36.614244-88.313756 123.879024 123.879024 0 0 0-88.338731-36.614244z" p-id="8054" fill="#23C9ED"></path><path d="M971.101659 645.619512l-73.028683-62.414049c3.47161-21.229268 5.269854-42.883122 5.269853-64.437073s-1.798244-43.307707-5.269853-64.412097l73.028683-62.439025a35.715122 35.715122 0 0 0 10.389853-39.286634l-0.999024-2.897171a494.317268 494.317268 0 0 0-88.888195-153.749853l-1.998049-2.347708a35.889951 35.889951 0 0 0-39.186732-10.614634L759.733073 215.289756a389.369756 389.369756 0 0 0-111.191414-64.187317l-17.532879-94.807415a35.84 35.84 0 0 0-28.796878-28.696975l-3.022048-0.549464a503.40839 503.40839 0 0 0-177.301854 0l-3.022049 0.549464a35.790049 35.790049 0 0 0-28.796878 28.696975l-17.657756 95.256976A393.715512 393.715512 0 0 0 261.994146 215.514537L170.658341 183.021268a35.715122 35.715122 0 0 0-39.186731 10.614634l-2.023025 2.347708a497.963707 497.963707 0 0 0-88.863219 153.749853l-0.999025 2.897171A35.84 35.84 0 0 0 49.95122 391.917268l73.927804 63.088391a391.56761 391.56761 0 0 0-5.144975 63.662829c0 21.429073 1.673366 42.858146 5.144975 63.637853L50.176 645.394732a35.815024 35.815024 0 0 0-10.389854 39.286634l1.024 2.922146a495.541073 495.541073 0 0 0 88.86322 153.724878l2.023024 2.347708a35.84 35.84 0 0 0 39.186732 10.614634l91.335805-32.493269a386.67239 386.67239 0 0 0 110.417171 63.987513l17.657756 95.232a35.715122 35.715122 0 0 0 28.796878 28.696975l3.022048 0.549464a500.586146 500.586146 0 0 0 177.301854 0l3.022049-0.549464a35.765073 35.765073 0 0 0 28.796878-28.696975l17.532878-94.807415a391.717463 391.717463 0 0 0 111.191415-64.187317l90.686439 32.268488a35.715122 35.715122 0 0 0 39.186731-10.614634l1.998049-2.347708a498.188488 498.188488 0 0 0 88.888195-153.724878l0.999025-2.922146a36.014829 36.014829 0 0 0-10.614634-39.061854zM510.75122 703.88761a196.258341 196.258341 0 0 1-196.283318-196.283317 196.258341 196.258341 0 0 1 196.283318-196.283317 196.258341 196.258341 0 0 1 196.283317 196.283317 196.258341 196.258341 0 0 1-196.283317 196.283317z" p-id="8055" fill="#23C9ED"></path></svg>