<?xml version="1.0" standalone="no"?><!DOCTYPE svg PUBLIC "-//W3C//DTD SVG 1.1//EN" "http://www.w3.org/Graphics/SVG/1.1/DTD/svg11.dtd"><svg t="1618229462412" class="icon" viewBox="0 0 1024 1024" version="1.1" xmlns="http://www.w3.org/2000/svg" p-id="3860" xmlns:xlink="http://www.w3.org/1999/xlink" width="200" height="200"><defs><style type="text/css"></style></defs><path d="M960.984615 874.338462l-15.753846-53.169231c-9.846154-37.415385-41.353846-66.953846-80.738461-78.769231l-204.8-66.953846c-9.846154-1.969231-15.753846-9.846154-15.753846-19.692308 0 0 1.969231-17.723077 7.876923-21.661538l25.6-21.661539c63.015385-49.230769 102.4-128 102.4-214.646154 0-33.476923 3.938462-70.892308-13.784616-151.630769-13.784615-53.169231-78.769231-72.861538-84.676923-86.646154-3.938462-41.353846-3.938462-68.923077 0-114.215384-106.338462-53.169231-177.230769-11.815385-238.276923 21.661538s-90.584615 63.015385-118.153846 90.584616c-57.107692 61.046154-68.923077 104.369231-78.769231 171.323076-3.938462 21.661538-3.938462 45.292308-3.938461 66.953847 0 86.646154 39.384615 163.446154 102.4 214.646153l25.6 21.661539c3.938462 3.938462 7.876923 9.846154 7.876923 15.753846v5.907692c0 9.846154-5.907692 17.723077-15.753846 19.692308L157.538462 740.430769c-39.384615 11.815385-68.923077 41.353846-80.738462 78.769231l-15.753846 53.169231c-13.784615 49.230769 17.723077 98.461538 70.892308 110.276923 7.876923 1.969231 15.753846 1.969231 23.630769 1.969231H866.461538c53.169231 0 98.461538-41.353846 98.461539-90.584616 0-5.907692-1.969231-13.784615-3.938462-19.692307zM866.461538 947.2H157.538462c-5.907692 0-9.846154 0-15.753847-1.969231-31.507692-7.876923-49.230769-35.446154-41.353846-61.046154l15.753846-53.16923c5.907692-23.630769 27.569231-43.323077 53.169231-53.169231L374.153846 710.892308c23.630769-7.876923 43.323077-29.538462 43.323077-57.107693V649.846154c0-17.723077-7.876923-33.476923-21.661538-45.292308l-25.6-21.661538c-57.107692-45.292308-88.615385-112.246154-88.615385-185.107693 0-23.630769 1.969231-45.292308 3.938462-61.046153 9.846154-70.892308 23.630769-102.4 68.923076-149.661539 31.507692-33.476923 59.076923-57.107692 108.307693-84.676923 11.815385-5.907692 9.846154-5.907692 13.784615-7.876923 64.984615-37.415385 108.307692-47.261538 165.415385-25.6-1.969231 33.476923-1.969231 59.076923 1.969231 92.553846v5.907692l1.96923 5.907693c5.907692 13.784615 11.815385 17.723077 29.538462 29.538461 0 0 9.846154 5.907692 13.784615 7.876923 5.907692 3.938462 9.846154 5.907692 11.815385 9.846154 15.753846 11.815385 23.630769 21.661538 27.569231 33.476923 11.815385 49.230769 13.784615 76.8 13.784615 120.123077v21.661539c0 70.892308-33.476923 137.846154-88.615385 183.138461l-1.96923 1.969231-25.6 21.661538c-9.846154 9.846154-13.784615 17.723077-17.723077 31.507693 0 3.938462-1.969231 5.907692-1.969231 7.876923v7.876923c0 27.569231 17.723077 49.230769 43.323077 57.107692l204.8 64.984616c27.569231 7.876923 47.261538 27.569231 53.169231 53.16923l15.753846 53.169231c1.969231 3.938462 1.969231 7.876923 1.969231 11.815385 0 33.476923-25.6 57.107692-59.076924 57.107692z" p-id="3861"></path></svg>