<?xml version="1.0" standalone="no"?><!DOCTYPE svg PUBLIC "-//W3C//DTD SVG 1.1//EN" "http://www.w3.org/Graphics/SVG/1.1/DTD/svg11.dtd"><svg t="1617347543157" class="icon" viewBox="0 0 1024 1024" version="1.1" xmlns="http://www.w3.org/2000/svg" p-id="6618" data-spm-anchor-id="a313x.7781069.0.i0" xmlns:xlink="http://www.w3.org/1999/xlink" width="200" height="200"><defs><style type="text/css"></style></defs><path d="M910.1312 870.0928c-6.144 0-12.3392-0.9216-18.3808-2.816l-173.1584-54.016a30.6688 30.6688 0 0 1-21.5552-29.3376v-170.1888c0-13.3632 8.6528-25.1904 21.3504-29.2352l172.9536-55.3984c18.5344-5.9392 38.9632-2.6112 54.6816 8.8576 15.7184 11.4688 25.088 29.9008 25.088 49.3568V808.96c0 19.6608-9.0624 37.5808-24.8832 49.2032-10.752 7.8336-23.296 11.9296-36.096 11.9296z m-151.6544-108.7488l151.1424 47.1552V587.776l-151.1424 48.4352v125.1328z"  p-id="6619" data-spm-anchor-id="a313x.7781069.0.i2" class=""></path><path d="M258.7136 415.1296c59.136 0 110.7968-32.2048 138.5984-79.9744 31.0272 41.6256 80.64 68.608 136.448 68.608 93.8496 0 170.1888-76.3392 170.1888-170.1888 0-93.8496-76.3392-170.1888-170.1888-170.1888-65.2288 0-121.9584 36.9152-150.528 90.9312-29.3888-36.3008-74.2912-59.5968-124.5184-59.5968-88.32 0-160.2048 71.8848-160.2048 160.2048s71.8848 160.2048 160.2048 160.2048z m275.0464-290.304c59.9552 0 108.7488 48.7936 108.7488 108.7488 0 59.9552-48.7936 108.7488-108.7488 108.7488-59.9552 0-108.7488-48.7936-108.7488-108.7488 0-59.9552 48.7936-108.7488 108.7488-108.7488zM258.7136 156.16c54.4256 0 98.7648 44.288 98.7648 98.7648 0 54.4256-44.288 98.7648-98.7648 98.7648-54.4256 0-98.7648-44.288-98.7648-98.7648 0.0512-54.4256 44.3392-98.7648 98.7648-98.7648zM645.8368 453.632H173.9264c-62.1056 0-112.64 50.5344-112.64 112.64v274.6368c0 62.1056 50.5344 112.64 112.64 112.64h471.9104c62.1056 0 112.64-50.5344 112.64-112.64V566.272c0-62.1568-50.5344-112.64-112.64-112.64z m51.2 387.2256c0 28.2112-22.9888 51.2-51.2 51.2H173.9264c-28.2112 0-51.2-22.9888-51.2-51.2V566.272c0-28.2112 22.9888-51.2 51.2-51.2h471.9104c28.2112 0 51.2 22.9888 51.2 51.2v274.5856z"  p-id="6620" data-spm-anchor-id="a313x.7781069.0.i1" class=""></path></svg>