<?xml version="1.0" standalone="no"?><!DOCTYPE svg PUBLIC "-//W3C//DTD SVG 1.1//EN" "http://www.w3.org/Graphics/SVG/1.1/DTD/svg11.dtd"><svg t="1618230560327" class="icon" viewBox="0 0 1024 1024" version="1.1" xmlns="http://www.w3.org/2000/svg" p-id="12539" xmlns:xlink="http://www.w3.org/1999/xlink" width="240" height="240"><defs><style type="text/css"></style></defs><path d="M689.512135 21.283903a36.570279 36.570279 0 0 1 54.197154 31.304159l5.558683 287.003551 210.425386 196.162978a36.423998 36.423998 0 0 1-7.314056 58.585587l-5.631823 2.486779-221.030767 75.9199c8.045461 1.462811 15.65208 5.631823 21.357043 12.433894l234.781192 278.95809c12.945879 15.359517 10.971084 38.325653-4.388433 51.198391v0.073141h-0.073141a36.570279 36.570279 0 0 1-51.490953-4.388434l-234.781192-279.03123a36.350858 36.350858 0 0 1 0.731405-47.687644l-16.822328 5.778104-121.193906 259.941545a36.570279 36.570279 0 0 1-58.073603 10.971083l-4.095871-4.534714L318.17752 727.017151 32.856202 691.54398a36.570279 36.570279 0 0 1-28.671099-51.783515L7.330147 634.421204l164.419975-234.927474-55.07484-281.883712a36.423998 36.423998 0 0 1 40.373588-43.079789l6.070666 1.31653 275.0085 84.111642z m-17.553734 93.03479L460.070204 231.197305a36.570279 36.570279 0 0 1-28.305397 2.925623l-231.85557-70.873202 46.444255 237.560534a36.350858 36.350858 0 0 1-2.925623 22.746714l-2.925622 5.119839-138.674499 197.991492 240.559297 29.987629a36.570279 36.570279 0 0 1 19.67481 8.923148l4.973558 5.339261 146.207976 193.237355 102.250501-218.982832a36.350858 36.350858 0 0 1 15.72522-16.602907l5.412402-2.413638 228.929947-78.626101-177.292713-165.297662a36.570279 36.570279 0 0 1-10.971084-20.113653l-0.658265-5.851245-4.680996-241.948967z m338.787067 68.825265l4.680996 4.680996a36.350858 36.350858 0 0 1 0.219421 46.590536l-4.680995 4.680996L898.913554 332.789541a36.570279 36.570279 0 0 1-46.809957 0.146281l-4.680996-4.680996a36.350858 36.350858 0 0 1-0.219422-46.517395l4.754137-4.754136 111.905054-93.619915a36.570279 36.570279 0 0 1 46.809957-0.219422z m-21.942168-174.805934l4.680996 4.680995a36.350858 36.350858 0 0 1-4.388433 51.271532L876.971387 157.983606a36.570279 36.570279 0 0 1-46.809958 0.219422l-4.607855-4.680996a36.350858 36.350858 0 0 1 4.461574-51.271531L942.066484 8.557445a36.570279 36.570279 0 0 1 46.809957-0.219421z"  p-id="12540"></path></svg>